<?xml version="1.0" encoding="utf-8"?>
<svg viewBox="0 0 512 512" xmlns="http://www.w3.org/2000/svg">
  <path d="M 230.628 51.573 C 192.246 57.542, 153.354 78.182, 124.931 107.666 C 73.455 161.064, 56.204 241.702, 81.996 308.363 C 92.495 335.500, 110.263 362.216, 131.729 383.143 C 157.599 408.362, 185.042 423.187, 224 432.987 C 244.370 438.111, 255.917 439.299, 279.500 438.696 C 303.552 438.081, 312.341 436.625, 332.523 429.914 C 344.194 426.033, 367.676 415.299, 372.500 411.639 C 374.315 410.263, 374.355 409.975, 372.938 408.535 C 371.512 407.086, 370.643 407.120, 362.938 408.924 C 333.246 415.875, 302.455 415.713, 273.822 408.455 C 246.854 401.619, 225.195 389.777, 206.049 371.400 C 197.784 363.467, 185.371 348.417, 184.118 344.808 C 183.908 344.204, 188.408 347.755, 194.118 352.699 C 215.109 370.875, 230.223 378.490, 256.520 384.141 C 266.403 386.264, 269.949 386.497, 292 386.467 C 319.313 386.429, 327.296 385.287, 347.651 378.504 C 398.655 361.509, 436.544 316.800, 449.212 258.664 C 452.216 244.879, 452.434 210.888, 449.617 195.554 C 442.769 158.278, 425.249 123.093, 400.769 97.453 C 391.172 87.401, 380.378 78.347, 371.750 73.112 C 369.688 71.861, 368 71.228, 368 71.707 C 368 72.186, 370.678 75.594, 373.950 79.280 C 393.804 101.646, 405.497 120.444, 414.430 144.357 C 419.193 157.104, 424.525 178.081, 425.906 189.500 C 427.668 204.068, 427.280 227.161, 425.056 240.172 C 419.805 270.886, 404.512 301.005, 382.605 323.777 C 372.972 333.791, 360.219 344, 357.343 344 C 354.091 344, 356.289 338.212, 364.027 326.399 C 383.571 296.562, 392.567 268.850, 393.860 234.500 C 394.391 220.392, 394.753 217.500, 395.990 217.500 C 398.061 217.500, 398.744 213.398, 398.882 200.128 C 399.162 173.188, 392.174 146.876, 377.357 119.084 C 369.696 104.715, 365.377 98.588, 357.867 91.437 C 335.792 70.417, 306.426 56.075, 276 51.455 C 264.279 49.674, 242.472 49.732, 230.628 51.573 M 240.500 84.085 C 229.883 85.354, 217.424 88.473, 206.973 92.481 C 169.063 107.017, 139.897 133.445, 121.976 169.500 C 100.664 212.378, 97.378 255.935, 112.093 300.500 C 116.059 312.511, 124.483 331, 125.990 331 C 126.430 331, 125.955 328.316, 124.934 325.036 C 120.615 311.158, 119.541 302.290, 119.541 280.500 C 119.541 256.926, 120.585 249.491, 126.623 230.059 C 140.069 186.793, 172.938 149.215, 215.500 128.449 C 236.233 118.334, 250.920 114.694, 271 114.694 C 290.522 114.694, 305.766 118.384, 324 127.525 C 340.433 135.762, 360.762 152.748, 369.674 165.689 C 371.686 168.610, 373.660 171, 374.060 171 C 376.170 171, 370.300 153.337, 363.756 140 C 359.231 130.777, 357.443 128.336, 349.052 119.924 C 338.544 109.389, 331.102 104.108, 317.500 97.535 C 294.995 86.659, 264.112 81.265, 240.500 84.085 M 188.453 154.963 C 166.508 173.208, 143.154 214.879, 136.592 247.500 C 129.191 284.293, 133.715 325.803, 148.467 356.461 C 160.029 380.490, 175.092 397.472, 196.772 410.918 C 205.898 416.579, 208.678 417.387, 204.789 413.250 C 199.065 407.161, 173.426 366.885, 167.390 354.500 C 152.928 324.825, 146.613 293.481, 149.055 263.500 C 150.097 250.711, 153.278 233.322, 154.866 231.734 C 156.633 229.967, 157.855 231.985, 158.517 237.766 C 159.692 248.028, 163.947 267.811, 167.121 277.767 C 179.222 315.726, 204.848 347.075, 234.121 359.731 C 274.399 377.145, 321.562 357.469, 342.537 314.500 C 350.421 298.349, 353.973 281.910, 352.516 268.309 C 351.729 260.960, 351.006 261.085, 348.514 269 C 341.441 291.457, 319.367 316.274, 297 326.914 C 283.371 333.398, 277.884 334.504, 259.500 334.474 C 240.646 334.442, 235.558 333.339, 220.383 325.993 C 190.619 311.582, 171.315 277.141, 169.342 234.929 C 167.960 205.355, 174.882 180.202, 190.560 157.828 C 193.642 153.429, 196.007 149.673, 195.815 149.481 C 195.623 149.289, 192.310 151.756, 188.453 154.963 M 246.500 167.482 C 224.028 172.437, 205.270 187.301, 194.627 208.585 C 188.543 220.752, 186.562 229.598, 186.583 244.500 C 186.605 260.160, 188.019 266.166, 195.175 281 C 199.601 290.175, 201.329 292.575, 208.870 300.018 C 222.693 313.663, 236.488 319.786, 255.500 320.714 C 268.748 321.360, 275.555 319.924, 287.889 313.877 C 306.553 304.729, 321.476 283.885, 326.515 259.927 C 328.688 249.600, 328.433 232.363, 325.954 222.024 C 316.841 184.008, 281.518 159.760, 246.500 167.482 M 207 394.185 C 207 396.761, 209.746 399.316, 217.633 404.080 C 231.564 412.495, 248.791 418.448, 266.500 420.965 C 279.106 422.757, 278.710 421.945, 265 417.885 C 247.458 412.691, 236.517 408.320, 220.250 400.008 C 212.963 396.285, 207 393.664, 207 394.185" stroke="none" fill-rule="evenodd" style="fill: rgb(255, 255, 255);" transform="matrix(1, 0, 0, 1, 0, -7.105427357601002e-15)"/>
</svg>